<!DOCTYPE svg PUBLIC "-//W3C//DTD SVG 20010904//EN" "http://www.w3.org/TR/2001/REC-SVG-20010904/DTD/svg10.dtd">
<svg version="1.0" xmlns="http://www.w3.org/2000/svg" width="432px" height="78px" viewBox="0 0 4320 780" preserveAspectRatio="xMidYMid meet">
<g id="layer101" fill="#325ab4" stroke="none">
<path d="M1460 767 c0 -1 13 -34 29 -72 20 -48 27 -75 21 -89 -4 -12 -35 -88 -69 -170 -34 -82 -61 -153 -61 -157 0 -5 15 -9 34 -9 l35 0 52 135 c29 74 55 132 57 130 2 -2 27 -61 56 -132 l51 -128 68 -3 67 -3 0 -39 c0 -39 1 -40 35 -40 34 0 35 1 35 40 0 38 2 40 30 40 27 0 30 3 30 30 0 27 -3 30 -30 30 l-31 0 3 118 3 117 28 3 c24 3 27 8 27 39 l0 36 -46 -6 c-73 -8 -78 -17 -82 -172 l-4 -135 -43 0 -43 0 -93 220 -94 220 -32 0 c-18 0 -33 -1 -33 -3z"/>
<path d="M0 372 l0 -304 36 7 c20 3 47 10 60 15 l24 10 0 269 0 269 -60 20 -60 19 0 -305z"/>
<path d="M1000 380 l0 -263 108 5 c121 5 161 20 193 71 26 42 21 108 -12 144 -16 17 -20 27 -12 30 81 29 103 144 41 211 -42 45 -76 55 -200 60 l-118 5 0 -263z m240 175 c49 -25 54 -94 10 -126 -16 -12 -52 -21 -97 -25 l-73 -7 0 87 0 86 65 0 c40 0 78 -6 95 -15z m-15 -240 c34 -33 33 -77 -1 -104 -20 -16 -41 -21 -85 -21 l-59 0 0 75 0 75 60 0 c51 0 65 -4 85 -25z"/>
<path d="M2420 378 l0 -261 98 6 c119 8 157 18 211 58 58 42 83 100 83 194 0 112 -38 182 -123 225 -39 21 -146 39 -226 40 l-43 0 0 -262z m241 166 c55 -33 73 -67 77 -147 7 -135 -46 -195 -178 -205 l-70 -5 0 185 c0 102 3 188 8 192 13 14 130 -1 163 -20z"/>
<path d="M3260 455 l0 -185 35 0 c25 0 35 4 35 15 0 13 3 13 26 -1 34 -23 103 -23 137 -1 50 33 61 69 65 220 l4 137 -36 0 -36 0 0 -125 c0 -137 -9 -172 -49 -182 -40 -11 -64 -4 -88 23 -21 23 -23 34 -23 155 l0 129 -35 0 -35 0 0 -185z"/>
<path d="M4055 626 c-134 -60 -143 -265 -14 -334 115 -62 259 22 259 151 l0 37 -140 0 c-130 0 -140 1 -140 19 0 27 47 70 86 77 44 8 76 0 112 -31 l29 -24 22 23 22 24 -33 25 c-63 48 -141 61 -203 33z m175 -216 c0 -5 -13 -24 -29 -42 -26 -29 -36 -33 -79 -33 -40 0 -56 5 -76 24 -14 14 -26 33 -26 43 0 16 10 18 105 18 62 0 105 -4 105 -10z"/>
<path d="M2054 611 c-71 -43 -103 -119 -84 -203 5 -28 20 -63 31 -79 55 -78 183 -86 256 -16 32 30 45 58 58 125 l7 32 -146 0 c-86 0 -146 4 -146 10 0 5 5 21 12 35 26 58 119 73 183 30 35 -25 38 -25 56 -9 19 17 19 18 -3 42 -49 53 -163 70 -224 33z m186 -205 c0 -24 -39 -64 -74 -76 -45 -15 -81 -4 -111 32 -44 53 -37 58 80 58 82 0 105 -3 105 -14z"/>
<path d="M2923 608 c-71 -51 -101 -176 -60 -255 45 -86 167 -116 242 -59 27 21 35 20 35 -4 0 -16 7 -20 30 -20 l30 0 0 180 0 180 -35 0 c-28 0 -35 -4 -35 -20 0 -11 -3 -20 -6 -20 -3 0 -17 9 -31 20 -37 29 -127 28 -170 -2z m165 -48 c13 0 42 -73 42 -107 0 -79 -39 -124 -109 -125 -47 0 -77 18 -96 58 -47 99 33 210 130 183 16 -5 31 -9 33 -9z"/>
<path d="M3690 608 c-106 -73 -116 -221 -20 -302 58 -48 146 -56 213 -18 32 19 33 24 7 47 -18 16 -22 17 -61 1 -53 -21 -91 -13 -124 26 -43 51 -29 169 24 198 29 15 94 12 119 -6 21 -15 25 -15 43 2 26 23 24 31 -13 54 -48 29 -144 28 -188 -2z"/>
</g>
<g id="layer102" fill="#00c8d2" stroke="none">
<path d="M465 576 l-40 -12 -3 -142 -3 -142 25 -9 c13 -6 40 -13 60 -16 l36 -7 0 171 c0 191 5 181 -75 157z"/>
</g>
<g id="layer103" fill="#3c8cff" stroke="none">
<path d="M220 499 l0 -171 36 7 c20 3 47 10 60 16 l25 9 -3 141 -3 142 -45 13 c-74 22 -70 32 -70 -157z"/>
</g>
<g id="layer104" fill="#78e6dc" stroke="none">
<path d="M640 359 l0 -331 36 7 c20 3 47 10 60 15 l24 10 -2 301 -3 302 -45 13 c-25 8 -51 14 -57 14 -10 0 -13 -73 -13 -331z"/>
</g>


</svg>